<?xml version="1.0" encoding="utf-8"?>
<!-- Generator: Adobe Illustrator 16.0.0, SVG Export Plug-In . SVG Version: 6.00 Build 0)  -->
<!DOCTYPE svg PUBLIC "-//W3C//DTD SVG 1.1//EN" "http://www.w3.org/Graphics/SVG/1.1/DTD/svg11.dtd">
<svg version="1.1" id="Layer_1" xmlns="http://www.w3.org/2000/svg" xmlns:xlink="http://www.w3.org/1999/xlink" x="0px" y="0px"
	 width="512px" height="512px" viewBox="0 0 512 512" enable-background="new 0 0 512 512" xml:space="preserve">
<g>
	<path fill="#E6E7E8" d="M425.008,198.422c0,89.292-72.393,161.685-161.688,161.685c-89.294,0-161.686-72.393-161.686-161.685
		c0-89.307,72.392-161.692,161.686-161.692C352.615,36.729,425.008,109.115,425.008,198.422z"/>
	<path fill="#27AAE1" d="M409.096,198.422c0,80.506-65.267,145.771-145.775,145.771c-80.505,0-145.773-65.266-145.773-145.771
		c0-80.509,65.269-145.779,145.773-145.779C343.829,52.643,409.096,117.913,409.096,198.422z"/>
	<path fill="#F7DB48" stroke="#000000" stroke-width="3" stroke-miterlimit="10" d="M380.991,198.422
		c0,64.986-52.681,117.668-117.671,117.668c-64.989,0-117.671-52.682-117.671-117.668S198.331,80.746,263.32,80.746
		C328.311,80.746,380.991,133.436,380.991,198.422z"/>
	<g>
		<g>
			<g>
				<path fill="#FBB040" d="M321.997,193.703c-3.741,29.075-28.657,51.568-58.665,51.568c-30.041,0-54.924-22.493-58.663-51.568
					h-2.564c3.739,30.492,29.73,54.093,61.228,54.093c31.461,0,57.486-23.601,61.229-54.093H321.997z"/>
				<path d="M321.997,193.703c-3.741,29.075-28.657,51.568-58.665,51.568c-30.041,0-54.924-22.493-58.663-51.568h-5.092
					c3.74,31.841,30.946,56.586,63.755,56.586c32.807,0,59.979-24.745,63.718-56.586H321.997z"/>
			</g>
			<path d="M204.628,193.703c0,1.599-1.125,2.896-2.523,2.896c-1.392,0-2.515-1.298-2.515-2.896s1.123-2.892,2.515-2.892
				C203.503,190.812,204.628,192.104,204.628,193.703z"/>
			<path d="M327.073,193.703c0,1.599-1.126,2.896-2.522,2.896c-1.385,0-2.515-1.298-2.515-2.896s1.13-2.892,2.515-2.892
				C325.947,190.812,327.073,192.104,327.073,193.703z"/>
		</g>
		<path d="M247.168,158.657c0,6.691-5.424,12.117-12.111,12.117c-6.689,0-12.115-5.426-12.115-12.117
			c0-6.683,5.426-12.11,12.115-12.11C241.744,146.547,247.168,151.975,247.168,158.657z"/>
		<path d="M306.009,158.657c0,6.691-5.427,12.117-12.118,12.117c-6.689,0-12.112-5.426-12.112-12.117
			c0-6.683,5.423-12.11,12.112-12.11C300.582,146.547,306.009,151.975,306.009,158.657z"/>
	</g>
</g>
<text transform="matrix(1 0 0 1 117.5117 428.666)"><tspan x="0" y="0" font-family="'SourceSansPro-Black'" font-size="89.317">is</tspan><tspan x="66.094" y="0" font-family="'SourceSansPro-Regular'" font-size="89.317">Fanny</tspan></text>
<text transform="matrix(1 0 0 1 114.709 467.0664)" font-family="'SourceSansPro-Light'" font-size="27.2214">Spread a smile to everyone</text>
</svg>
