<?xml version="1.0" encoding="utf-8"?>
<!-- Generator: Adobe Illustrator 16.0.0, SVG Export Plug-In . SVG Version: 6.00 Build 0)  -->
<!DOCTYPE svg PUBLIC "-//W3C//DTD SVG 1.1//EN" "http://www.w3.org/Graphics/SVG/1.1/DTD/svg11.dtd">
<svg version="1.1" id="Layer_1" xmlns="http://www.w3.org/2000/svg" xmlns:xlink="http://www.w3.org/1999/xlink" x="0px" y="0px"
	 width="406.371px" height="362.743px" viewBox="0 0 406.371 362.743" enable-background="new 0 0 406.371 362.743"
	 xml:space="preserve">
<rect fill="#F7DB49" width="406.371" height="362.743"/>
<g>
	<path fill="#FFFFFF" d="M350.883,181.372c0,81.571-66.127,147.696-147.697,147.696S55.488,262.943,55.488,181.372
		c0-81.573,66.127-147.697,147.697-147.697S350.883,99.799,350.883,181.372z"/>
	<path fill="#27AAE1" d="M336.349,181.372c0,73.544-59.624,133.163-133.163,133.163c-73.541,0-133.163-59.619-133.163-133.163
		c0-73.541,59.622-133.161,133.163-133.161C276.725,48.211,336.349,107.831,336.349,181.372z"/>
	<path fill="#F7DB48" stroke="#000000" stroke-width="2" stroke-miterlimit="10" d="M310.675,181.372
		c0,59.364-48.122,107.491-107.489,107.491c-59.365,0-107.489-48.127-107.489-107.491c0-59.361,48.124-107.489,107.489-107.489
		C262.553,73.883,310.675,122.011,310.675,181.372z"/>
	<g>
		<g>
			<g>
				<path fill="#FBB040" d="M256.785,177.063c-3.416,26.56-26.178,47.109-53.59,47.109c-27.441,0-50.171-20.55-53.59-47.109h-2.341
					c3.417,27.854,27.159,49.417,55.931,49.417c28.738,0,52.514-21.563,55.929-49.417H256.785z"/>
				<path d="M256.785,177.063c-3.416,26.56-26.178,47.109-53.59,47.109c-27.441,0-50.171-20.55-53.59-47.109h-4.647
					c3.417,29.089,28.267,51.691,58.237,51.691s54.789-22.603,58.203-51.691H256.785z"/>
			</g>
			<path d="M149.57,177.063c0,1.462-1.031,2.646-2.306,2.646c-1.27,0-2.294-1.185-2.294-2.646c0-1.459,1.024-2.641,2.294-2.641
				C148.539,174.422,149.57,175.604,149.57,177.063z"/>
			<path d="M261.42,177.063c0,1.462-1.026,2.646-2.301,2.646c-1.268,0-2.299-1.185-2.299-2.646c0-1.459,1.031-2.641,2.299-2.641
				C260.394,174.422,261.42,175.604,261.42,177.063z"/>
		</g>
		<path d="M188.431,145.055c0,6.109-4.956,11.064-11.065,11.064c-6.108,0-11.066-4.955-11.066-11.064s4.958-11.065,11.066-11.065
			C183.475,133.989,188.431,138.945,188.431,145.055z"/>
		<path d="M242.178,145.055c0,6.109-4.958,11.064-11.068,11.064c-6.107,0-11.063-4.955-11.063-11.064s4.956-11.065,11.063-11.065
			C237.22,133.989,242.178,138.945,242.178,145.055z"/>
	</g>
</g>
</svg>
