<?xml version="1.0" encoding="utf-8"?>
<!-- Generator: Adobe Illustrator 16.0.0, SVG Export Plug-In . SVG Version: 6.00 Build 0)  -->
<!DOCTYPE svg PUBLIC "-//W3C//DTD SVG 1.1//EN" "http://www.w3.org/Graphics/SVG/1.1/DTD/svg11.dtd">
<svg version="1.1" id="Layer_1" xmlns="http://www.w3.org/2000/svg" xmlns:xlink="http://www.w3.org/1999/xlink" x="0px" y="0px"
	 width="297.5px" height="296.125px" viewBox="0 0 297.5 296.125" enable-background="new 0 0 297.5 296.125" xml:space="preserve">
<g>
	<path fill="#E6E7E8" d="M295.809,148.229c0,81.571-66.127,147.696-147.697,147.696S0.414,229.801,0.414,148.229
		c0-81.573,66.127-147.697,147.697-147.697S295.809,66.656,295.809,148.229z"/>
	<path fill="#27AAE1" d="M281.274,148.229c0,73.544-59.624,133.163-133.163,133.163c-73.541,0-133.163-59.619-133.163-133.163
		c0-73.541,59.622-133.161,133.163-133.161C221.65,15.068,281.274,74.688,281.274,148.229z"/>
	<path fill="#F7DB48" stroke="#000000" stroke-width="2" stroke-miterlimit="10" d="M255.601,148.229
		c0,59.364-48.122,107.491-107.489,107.491c-59.365,0-107.489-48.127-107.489-107.491c0-59.361,48.124-107.489,107.489-107.489
		C207.479,40.74,255.601,88.868,255.601,148.229z"/>
	<g>
		<g>
			<g>
				<path fill="#FBB040" d="M201.711,143.92c-3.416,26.56-26.178,47.109-53.59,47.109c-27.441,0-50.171-20.55-53.59-47.109H92.19
					c3.417,27.854,27.159,49.417,55.931,49.417c28.738,0,52.514-21.563,55.929-49.417H201.711z"/>
				<path d="M201.711,143.92c-3.416,26.56-26.178,47.109-53.59,47.109c-27.441,0-50.171-20.55-53.59-47.109h-4.647
					c3.417,29.089,28.267,51.691,58.237,51.691s54.789-22.603,58.203-51.691H201.711z"/>
			</g>
			<path d="M94.496,143.92c0,1.462-1.031,2.646-2.306,2.646c-1.27,0-2.294-1.185-2.294-2.646c0-1.459,1.024-2.641,2.294-2.641
				C93.465,141.279,94.496,142.461,94.496,143.92z"/>
			<path d="M206.346,143.92c0,1.462-1.026,2.646-2.301,2.646c-1.268,0-2.299-1.185-2.299-2.646c0-1.459,1.031-2.641,2.299-2.641
				C205.319,141.279,206.346,142.461,206.346,143.92z"/>
		</g>
		<path d="M133.356,111.912c0,6.109-4.956,11.064-11.065,11.064c-6.108,0-11.066-4.955-11.066-11.064s4.958-11.065,11.066-11.065
			C128.4,100.847,133.356,105.803,133.356,111.912z"/>
		<path d="M187.104,111.912c0,6.109-4.958,11.064-11.068,11.064c-6.107,0-11.063-4.955-11.063-11.064s4.956-11.065,11.063-11.065
			C182.146,100.847,187.104,105.803,187.104,111.912z"/>
	</g>
</g>
</svg>
